<svg width="35" height="29" viewBox="0 0 35 29" fill="none" xmlns="http://www.w3.org/2000/svg">
<path d="M0 1.93333C0 0.865583 0.89543 0 2 0H8C8.88721 0 9.66838 0.565018 9.91873 1.38781L14.4965 16.4333H28.4384L30.4384 8.7H18C16.8954 8.7 16 7.83442 16 6.76667C16 5.69892 16.8954 4.83333 18 4.83333H33C33.6159 4.83333 34.1974 5.10762 34.5764 5.57687C34.9554 6.04612 35.0896 6.658 34.9403 7.23557L31.9403 18.8356C31.7177 19.6962 30.9177 20.3 30 20.3H13C12.1128 20.3 11.3316 19.735 11.0813 18.9122L6.50352 3.86667H2C0.89543 3.86667 0 3.00108 0 1.93333Z" fill="#202020"/>
<path d="M16 25.1333C16 27.2688 14.2091 29 12 29C9.79086 29 8 27.2688 8 25.1333C8 22.9978 9.79086 21.2667 12 21.2667C14.2091 21.2667 16 22.9978 16 25.1333Z" fill="#202020"/>
<path d="M30 29C32.2091 29 34 27.2688 34 25.1333C34 22.9978 32.2091 21.2667 30 21.2667C27.7908 21.2667 26 22.9978 26 25.1333C26 27.2688 27.7908 29 30 29Z" fill="#202020"/>
</svg>
